<?xml version="1.0" encoding="UTF-8" standalone="no"?>
<!-- Created with Inkscape (http://www.inkscape.org/) -->

<svg
   xmlns:dc="http://purl.org/dc/elements/1.1/"
   xmlns:cc="http://creativecommons.org/ns#"
   xmlns:rdf="http://www.w3.org/1999/02/22-rdf-syntax-ns#"
   xmlns:svg="http://www.w3.org/2000/svg"
   xmlns="http://www.w3.org/2000/svg"
   xmlns:xlink="http://www.w3.org/1999/xlink"
   xmlns:sodipodi="http://sodipodi.sourceforge.net/DTD/sodipodi-0.dtd"
   xmlns:inkscape="http://www.inkscape.org/namespaces/inkscape"
   width="169.28125"
   height="72.4375"
   id="svg9885"
   version="1.1"
   inkscape:version="0.48.4 r9939"
   sodipodi:docname="ST_Intersection.svg">
  <defs
     id="defs9887">
    <pattern
       inkscape:collect="always"
       xlink:href="#pattern3973-672"
       id="pattern5328"
       patternTransform="matrix(0.14670974,0.4263875,-1.4676096,0.55703982,76.135663,423.33487)" />
    <pattern
       patternTransform="matrix(0.14670974,0.4263875,-1.4676096,0.55703982,76.135663,423.33487)"
       id="pattern3973-672"
       xlink:href="#pattern3969-797"
       inkscape:collect="always" />
    <pattern
       patternTransform="matrix(0.14426332,0.39920028,-1.4431369,0.52152199,53.21184,417.63232)"
       id="pattern3969-797"
       xlink:href="#Strips1_4-768"
       inkscape:collect="always" />
    <pattern
       inkscape:collect="always"
       patternUnits="userSpaceOnUse"
       width="5"
       height="1"
       patternTransform="translate(0,0) scale(10,10)"
       id="Strips1_4-768"
       inkscape:stockid="Stripes 1:4">
      <rect
         style="fill:#0000ff;stroke:none"
         x="0"
         y="-0.5"
         width="1"
         height="2"
         id="rect4677" />
    </pattern>
    <pattern
       inkscape:collect="always"
       xlink:href="#pattern3973-672"
       id="pattern10950"
       patternTransform="matrix(0.14670974,0.4263875,-1.4676096,0.55703982,76.135663,423.33487)" />
    <pattern
       patternTransform="matrix(0.14670974,0.4263875,-1.4676096,0.55703982,76.135663,423.33487)"
       id="pattern10952"
       xlink:href="#pattern3969-797"
       inkscape:collect="always" />
    <pattern
       patternTransform="matrix(0.14426332,0.39920028,-1.4431369,0.52152199,53.21184,417.63232)"
       id="pattern10954"
       xlink:href="#Strips1_4-768"
       inkscape:collect="always" />
    <pattern
       inkscape:collect="always"
       xlink:href="#pattern3973-672"
       id="pattern10960"
       patternTransform="matrix(0.14670974,0.4263875,-1.4676096,0.55703982,76.135663,423.33487)" />
    <pattern
       patternTransform="matrix(0.14670974,0.4263875,-1.4676096,0.55703982,76.135663,423.33487)"
       id="pattern10962"
       xlink:href="#pattern3969-797"
       inkscape:collect="always" />
    <pattern
       patternTransform="matrix(0.14426332,0.39920028,-1.4431369,0.52152199,53.21184,417.63232)"
       id="pattern10964"
       xlink:href="#Strips1_4-768"
       inkscape:collect="always" />
    <pattern
       inkscape:collect="always"
       xlink:href="#pattern3973-672"
       id="pattern10970"
       patternTransform="matrix(0.14670974,0.4263875,-1.4676096,0.55703982,76.135663,423.33487)" />
    <pattern
       patternTransform="matrix(0.14670974,0.4263875,-1.4676096,0.55703982,76.135663,423.33487)"
       id="pattern10972"
       xlink:href="#pattern3969-797"
       inkscape:collect="always" />
    <pattern
       patternTransform="matrix(0.14426332,0.39920028,-1.4431369,0.52152199,53.21184,417.63232)"
       id="pattern10974"
       xlink:href="#Strips1_4-768"
       inkscape:collect="always" />
  </defs>
  <sodipodi:namedview
     id="base"
     pagecolor="#ffffff"
     bordercolor="#666666"
     borderopacity="1.0"
     inkscape:pageopacity="0.0"
     inkscape:pageshadow="2"
     inkscape:zoom="5.6250283"
     inkscape:cx="108.19399"
     inkscape:cy="26.930444"
     inkscape:document-units="px"
     inkscape:current-layer="layer1"
     showgrid="false"
     fit-margin-top="0"
     fit-margin-left="0"
     fit-margin-right="0"
     fit-margin-bottom="0"
     inkscape:window-width="1920"
     inkscape:window-height="1031"
     inkscape:window-x="-4"
     inkscape:window-y="-4"
     inkscape:window-maximized="1" />
  <metadata
     id="metadata9890">
    <rdf:RDF>
      <cc:Work
         rdf:about="">
        <dc:format>image/svg+xml</dc:format>
        <dc:type
           rdf:resource="http://purl.org/dc/dcmitype/StillImage" />
        <dc:title />
      </cc:Work>
    </rdf:RDF>
  </metadata>
  <g
     inkscape:label="Livello 1"
     inkscape:groupmode="layer"
     id="layer1"
     transform="translate(-470.8125,-596.65625)">
    <path
       style="fill:#ffffff;stroke:#ff0000;stroke-width:1.04272068px;stroke-linecap:butt;stroke-linejoin:miter;stroke-opacity:1"
       d="m 541.63846,632.47818 -18.84451,35.92961 -28.40741,-12.38911 16.31317,-24.31656 -15.46938,-20.17756 24.23375,-14.15972 z"
       id="path8408"
       inkscape:connector-curvature="0"
       sodipodi:nodetypes="ccccccc" />
    <path
       style="fill:#ffffff;stroke:#0000ff;stroke-width:1.09942245000000010px;stroke-linecap:butt;stroke-linejoin:miter;stroke-opacity:1"
       d="m 518.96179,618.94251 -0.25869,25.95264 -47.33968,-0.31269 0,-25.32727 z"
       id="path8410"
       inkscape:connector-curvature="0" />
    <g
       transform="matrix(0.95316999,0,0,0.90134814,265.98755,422.52559)"
       style="font-size:20px;font-style:normal;font-variant:normal;font-weight:bold;font-stretch:normal;line-height:125%;letter-spacing:0px;word-spacing:0px;fill:#ff0000;fill-opacity:1;stroke:none;font-family:Helvetica;-inkscape-font-specification:Sans Bold"
       id="flowRoot8412">
      <path
         d="m 271.81836,226.78125 0,3.17383 3.53516,0 c 0.6315,1e-5 1.14419,-0.11881 1.53808,-0.35645 0.39387,-0.23762 0.59081,-0.65917 0.59082,-1.26465 -10e-6,-0.67056 -0.26042,-1.11327 -0.78125,-1.32812 -0.44923,-0.14973 -1.02214,-0.2246 -1.71875,-0.22461 z m 0,5.55664 0,3.83789 3.53516,0 c 0.6315,0 1.12303,-0.0846 1.4746,-0.25391 0.63802,-0.31249 0.95703,-0.91145 0.95704,-1.79687 -1e-5,-0.74869 -0.30926,-1.26302 -0.92774,-1.54297 -0.34506,-0.15624 -0.83008,-0.23762 -1.45508,-0.24414 z m 4.12109,-8.05664 c 1.76432,0.0261 3.01431,0.53712 3.75,1.5332 0.4427,0.61199 0.66405,1.34442 0.66407,2.19727 -2e-5,0.87891 -0.22137,1.58529 -0.66407,2.11914 -0.2474,0.29949 -0.61199,0.57292 -1.09375,0.82031 0.73567,0.26694 1.29068,0.69011 1.66504,1.26953 0.37434,0.57944 0.56151,1.28256 0.56153,2.10938 -2e-5,0.85287 -0.21486,1.61784 -0.64454,2.29492 -0.27345,0.44922 -0.61524,0.82682 -1.02539,1.13281 -0.46225,0.35157 -1.00749,0.59245 -1.63574,0.72266 -0.62826,0.13021 -1.31023,0.19531 -2.0459,0.19531 l -6.52343,0 0,-14.39453 6.99218,0 z"
         style=""
         id="path3023" />
    </g>
    <g
       transform="matrix(0.95316999,0,0,0.90134814,222.83074,422.52559)"
       style="font-size:20px;font-style:normal;font-variant:normal;font-weight:bold;font-stretch:normal;line-height:125%;letter-spacing:0px;word-spacing:0px;fill:#0000ff;fill-opacity:1;stroke:none;font-family:Helvetica;-inkscape-font-specification:Sans Bold"
       id="flowRoot8420">
      <path
         d="m 272.83398,233.23633 3.65235,0 -1.79688,-5.66406 z m 0.18555,-8.95508 3.39844,0 5.09765,14.39453 -3.26171,0 -0.92774,-2.95898 -5.30273,0 -0.9961,2.95898 -3.14453,0 z"
         style=""
         id="path3020" />
    </g>
    <path
       style="fill:none;stroke:#ff0000;stroke-width:1.04272068;stroke-linecap:butt;stroke-linejoin:miter;stroke-miterlimit:4;stroke-opacity:1;stroke-dasharray:1.04272068, 1.04272068;stroke-dashoffset:0"
       d="m 639.63234,632.4786 -18.84451,35.92961 -28.40741,-12.38911 16.31317,-24.31656 -15.46938,-20.17757 24.23375,-14.15971 z"
       id="path8495"
       inkscape:connector-curvature="0"
       sodipodi:nodetypes="ccccccc" />
    <path
       style="fill:none;stroke:#0000ff;stroke-width:1.09942245;stroke-linecap:butt;stroke-linejoin:miter;stroke-miterlimit:4;stroke-opacity:1;stroke-dasharray:1.09942245, 1.09942245;stroke-dashoffset:0"
       d="m 616.95567,618.94293 -0.25869,25.95264 -47.33968,-0.31269 0,-25.32727 z"
       id="path8497"
       inkscape:connector-curvature="0" />
    <path
       style="color:#000000;fill:#800080;fill-opacity:1;fill-rule:nonzero;stroke:#800080;stroke-width:1px;stroke-linecap:butt;stroke-linejoin:miter;stroke-miterlimit:4;stroke-opacity:1;stroke-dasharray:none;stroke-dashoffset:0;marker:none;visibility:visible;display:inline;overflow:visible;enable-background:accumulate"
       d="m 550.92171,624.8752 0,13.78858 8.13173,-7.42462 z"
       id="path8499"
       inkscape:connector-curvature="0" />
    <path
       style="fill:none;stroke:#0000ff;stroke-width:2;stroke-linecap:butt;stroke-linejoin:miter;stroke-miterlimit:4;stroke-opacity:1;stroke-dasharray:none"
       d="m 485.03279,603.30844 32.35014,8.48528"
       id="path8523"
       inkscape:connector-curvature="0" />
    <path
       sodipodi:type="arc"
       style="color:#000000;fill:#0000ff;fill-opacity:1;fill-rule:nonzero;stroke:#0000ff;stroke-width:1.09942245;stroke-linecap:butt;stroke-linejoin:miter;stroke-miterlimit:4;stroke-opacity:1;stroke-dasharray:none;stroke-dashoffset:0;marker:none;visibility:visible;display:inline;overflow:visible;enable-background:accumulate"
       id="path8525"
       sodipodi:cx="324.56201"
       sodipodi:cy="110.67273"
       sodipodi:rx="2.1213202"
       sodipodi:ry="1.9445436"
       d="m 326.68333,110.67273 c 0,1.07394 -0.94975,1.94454 -2.12132,1.94454 -1.17157,0 -2.12132,-0.8706 -2.12132,-1.94454 0,-1.07394 0.94975,-1.94454 2.12132,-1.94454 1.17157,0 2.12132,0.8706 2.12132,1.94454 z"
       transform="matrix(-1,0,0,1,837.72311,547.08293)" />
    <path
       style="color:#000000;fill:none;stroke:#0000ff;stroke-width:2;stroke-linecap:butt;stroke-linejoin:miter;stroke-miterlimit:4;stroke-opacity:1;stroke-dasharray:none;stroke-dashoffset:0;marker:none;visibility:visible;display:inline;overflow:visible;enable-background:accumulate"
       d="m 487.15411,607.72786 -9.54594,7.77817"
       id="path8527"
       inkscape:connector-curvature="0" />
    <path
       transform="matrix(-1,0,0,1,808.73174,542.30996)"
       d="m 326.68333,110.67273 c 0,1.07394 -0.94975,1.94454 -2.12132,1.94454 -1.17157,0 -2.12132,-0.8706 -2.12132,-1.94454 0,-1.07394 0.94975,-1.94454 2.12132,-1.94454 1.17157,0 2.12132,0.8706 2.12132,1.94454 z"
       sodipodi:ry="1.9445436"
       sodipodi:rx="2.1213202"
       sodipodi:cy="110.67273"
       sodipodi:cx="324.56201"
       id="path8529"
       style="color:#000000;fill:#0000ff;fill-opacity:1;fill-rule:nonzero;stroke:#0000ff;stroke-width:1.09942245;stroke-linecap:butt;stroke-linejoin:miter;stroke-miterlimit:4;stroke-opacity:1;stroke-dasharray:none;stroke-dashoffset:0;marker:none;visibility:visible;display:inline;overflow:visible;enable-background:accumulate"
       sodipodi:type="arc" />
    <path
       style="fill:none;stroke:#0000ff;stroke-width:2;stroke-linecap:butt;stroke-linejoin:miter;stroke-miterlimit:4;stroke-opacity:1;stroke-dasharray:2, 2;stroke-dashoffset:0"
       d="m 583.02667,603.30886 16.76537,4.37855"
       id="path8550"
       inkscape:connector-curvature="0"
       sodipodi:nodetypes="cc" />
    <path
       transform="matrix(-1,0,0,1,935.71699,547.08335)"
       d="m 326.68333,110.67273 c 0,1.07394 -0.94975,1.94454 -2.12132,1.94454 -1.17157,0 -2.12132,-0.8706 -2.12132,-1.94454 0,-1.07394 0.94975,-1.94454 2.12132,-1.94454 1.17157,0 2.12132,0.8706 2.12132,1.94454 z"
       sodipodi:ry="1.9445436"
       sodipodi:rx="2.1213202"
       sodipodi:cy="110.67273"
       sodipodi:cx="324.56201"
       id="path8552"
       style="color:#000000;fill:#000000;fill-opacity:1;fill-rule:nonzero;stroke:#000000;stroke-width:1.09942245;stroke-linecap:butt;stroke-linejoin:miter;stroke-miterlimit:4;stroke-opacity:1;stroke-dasharray:none;stroke-dashoffset:0;marker:none;visibility:visible;display:inline;overflow:visible;enable-background:accumulate"
       sodipodi:type="arc" />
    <path
       inkscape:connector-curvature="0"
       id="path8554"
       d="m 585.14799,607.72828 -9.54594,7.77817"
       style="color:#000000;fill:none;stroke:#0000ff;stroke-width:2.19884491;stroke-linecap:butt;stroke-linejoin:miter;stroke-miterlimit:4;stroke-opacity:1;stroke-dasharray:2.19884491, 2.19884491;stroke-dashoffset:0;marker:none;visibility:visible;display:inline;overflow:visible;enable-background:accumulate" />
    <path
       sodipodi:type="arc"
       style="color:#000000;fill:none;stroke:#0000ff;stroke-width:1.09942245;stroke-linecap:butt;stroke-linejoin:miter;stroke-miterlimit:4;stroke-opacity:1;stroke-dasharray:1.09942245, 1.09942245;stroke-dashoffset:0;marker:none;visibility:visible;display:inline;overflow:visible;enable-background:accumulate"
       id="path8556"
       sodipodi:cx="324.56201"
       sodipodi:cy="110.67273"
       sodipodi:rx="2.1213202"
       sodipodi:ry="1.9445436"
       d="m 326.68333,110.67273 c 0,1.07394 -0.94975,1.94454 -2.12132,1.94454 -1.17157,0 -2.12132,-0.8706 -2.12132,-1.94454 0,-1.07394 0.94975,-1.94454 2.12132,-1.94454 1.17157,0 2.12132,0.8706 2.12132,1.94454 z"
       transform="matrix(-1,0,0,1,906.72562,542.31038)" />
    <path
       id="path11764"
       style="fill:none;stroke:#000000;stroke-width:2;stroke-linecap:butt;stroke-linejoin:miter;stroke-miterlimit:4;stroke-opacity:1;stroke-dasharray:none"
       d="m 615.37681,611.79414 -15.56417,-4.11877"
       inkscape:connector-curvature="0" />
    <path
       style="fill:#ffffff;stroke:#000000;stroke-width:1.04272068000000000px;stroke-linecap:butt;stroke-linejoin:miter;stroke-opacity:1"
       d="m 616.95567,618.94293 -0.25,25.9375 -16.8125,-0.125 8.78125,-13.0625 -9.6875,-12.625 17.96875,-0.125 z"
       id="path8464"
       inkscape:connector-curvature="0" />
  </g>
</svg>
